<?xml version="1.0" encoding="UTF-8"?>
<svg width="240px" height="150px" viewBox="0 0 240 150" version="1.1" xmlns="http://www.w3.org/2000/svg" xmlns:xlink="http://www.w3.org/1999/xlink">
    <!-- Generator: Sketch 41 (35326) - http://www.bohemiancoding.com/sketch -->
    <title>Artboard</title>
    <desc>Created with Sketch.</desc>
    <defs>
        <polygon id="path-1" points="106.304289 25.2623158 106.304289 0.177607656 0.605220257 0.177607656 0.605220257 25.2623158"></polygon>
        <polygon id="path-3" points="2.04369226e-20 0.0782392344 2.04369226e-20 25.1630239 105.752889 25.1630239 105.752889 0.0782392344 0 0.0782392344"></polygon>
    </defs>
    <g id="Page-1" stroke="none" stroke-width="1" fill="none" fill-rule="evenodd">
        <g id="Artboard">
            <g id="2" transform="translate(52.000000, 19.000000)">
                <g id="Landing-Page">
                    <g>
                        <g id="Client-Landing-Page">
                            <g id="Why-Use-Zehitomo">
                                <g id="Features">
                                    <g id="2">
                                        <path d="M24.46875,12.2105263 C24.46875,18.9541533 18.9911732,24.4210526 12.234375,24.4210526 C5.4775768,24.4210526 0,18.9541533 0,12.2105263 C0,5.46689926 5.4775768,0 12.234375,0 C18.9911732,0 24.46875,5.46689926 24.46875,12.2105263" id="Fill-1" fill="#EEBED5"></path>
                                        <path d="M24.46875,77.0526316 C24.46875,83.7962586 18.9911732,89.2631579 12.234375,89.2631579 C5.4775768,89.2631579 0,83.7962586 0,77.0526316 C0,70.3090045 5.4775768,64.8421053 12.234375,64.8421053 C18.9911732,64.8421053 24.46875,70.3090045 24.46875,77.0526316" id="Fill-3" fill="#EEBED5"></path>
                                        <path d="M135,45.0526316 C135,51.7962586 129.522423,57.2631579 122.765625,57.2631579 C116.008827,57.2631579 110.53125,51.7962586 110.53125,45.0526316 C110.53125,38.3090045 116.008827,32.8421053 122.765625,32.8421053 C129.522423,32.8421053 135,38.3090045 135,45.0526316" id="Fill-5" fill="#EEBED5"></path>
                                        <path d="M16.03125,9.68421053 C16.03125,11.7772506 14.3315031,13.4736842 12.234375,13.4736842 C10.1372469,13.4736842 8.4375,11.7772506 8.4375,9.68421053 C8.4375,7.59117044 10.1372469,5.89473684 12.234375,5.89473684 C14.3315031,5.89473684 16.03125,7.59117044 16.03125,9.68421053" id="Fill-7" fill="#F3F4F4"></path>
                                        <path d="M21.09375,21.2516072 C19.2889167,18.597308 16.1865959,16.8421053 12.6566332,16.8421053 C9.12667044,16.8421053 6.02358333,18.597308 4.21875,21.2516072 C6.44892621,23.2143508 9.40333489,24.4210526 12.6566332,24.4210526 C15.9091651,24.4210526 18.8635738,23.2143508 21.09375,21.2516072" id="Fill-9" fill="#F3F4F4"></path>
                                        <g id="Group-13" transform="translate(28.687500, 0.000000)">
                                            <g id="Fill-11-Clipped">
                                                <mask id="mask-2" fill="white">
                                                    <use xlink:href="#path-1"></use>
                                                </mask>
                                                <g id="path-1"></g>
                                                <path d="M101.686273,0.177531101 L11.6372454,0.177531101 C9.09759617,0.177531101 7.01915327,2.28815311 7.01915327,4.86882296 L7.01915327,15.0889187 L0.605220257,19.7802105 L7.01915327,19.7802105 L7.01915327,20.5710239 C7.01915327,23.1509283 9.09759617,25.2623158 11.6372454,25.2623158 L101.686273,25.2623158 C104.225921,25.2623158 106.304365,23.1509283 106.304365,20.5710239 L106.304365,4.86882296 C106.304365,2.28815311 104.225921,0.177531101 101.686273,0.177531101" id="Fill-11" fill="#F6CFE2" mask="url(#mask-2)"></path>
                                            </g>
                                        </g>
                                        <path d="M16.03125,74.5263158 C16.03125,76.6193559 14.3315031,78.3157895 12.234375,78.3157895 C10.1372469,78.3157895 8.4375,76.6193559 8.4375,74.5263158 C8.4375,72.4332757 10.1372469,70.7368421 12.234375,70.7368421 C14.3315031,70.7368421 16.03125,72.4332757 16.03125,74.5263158" id="Fill-14" fill="#F3F4F4"></path>
                                        <path d="M21.09375,86.0937128 C19.2889167,83.4394132 16.1865959,81.6842105 12.6566332,81.6842105 C9.12667044,81.6842105 6.02358333,83.4394132 4.21875,86.0937128 C6.44892621,88.0564564 9.40333489,89.2631579 12.6566332,89.2631579 C15.9091651,89.2631579 18.8635738,88.0564564 21.09375,86.0937128" id="Fill-16" fill="#F3F4F4"></path>
                                        <path d="M85.1651677,66.5263158 L49.8159184,66.5263158 C45.1457483,66.5263158 41.3248363,70.3529817 41.3248363,75.0301848 L41.3248363,78.5300099 L29.53125,78.349684 L41.3248363,87.0338787 L41.3248363,103.496131 C41.3248363,108.173334 45.1457483,112 49.8159184,112 L85.1651677,112 C89.8353383,112 93.65625,108.173334 93.65625,103.496131 L93.65625,75.0301848 C93.65625,70.3529817 89.8353383,66.5263158 85.1651677,66.5263158" id="Fill-18" fill="#3BBCDA"></path>
                                        <path d="M126.5625,41.6842105 C126.5625,43.7772506 124.862753,45.4736842 122.765625,45.4736842 C120.668497,45.4736842 118.96875,43.7772506 118.96875,41.6842105 C118.96875,39.5911704 120.668497,37.8947368 122.765625,37.8947368 C124.862753,37.8947368 126.5625,39.5911704 126.5625,41.6842105" id="Fill-20" fill="#F3F4F4"></path>
                                        <path d="M130.78125,54.0937125 C128.976416,51.4394132 125.874096,49.6842105 122.344133,49.6842105 C118.814171,49.6842105 115.711084,51.4394132 113.90625,54.0937125 C116.136426,56.0564561 119.090835,57.2631579 122.344133,57.2631579 C125.596665,57.2631579 128.551074,56.0564561 130.78125,54.0937125" id="Fill-22" fill="#F3F4F4"></path>
                                        <g id="Group-26" transform="translate(0.000000, 32.842105)">
                                            <g id="Fill-24-Clipped">
                                                <mask id="mask-4" fill="white">
                                                    <use xlink:href="#path-3"></use>
                                                </mask>
                                                <g id="path-3"></g>
                                                <path d="M4.62029601,0.0782392344 L94.7152389,0.0782392344 C97.2561828,0.0782392344 99.3356857,2.18886125 99.3356857,4.7695311 L99.3356857,14.9896268 L105.752889,19.6809187 L99.3356857,19.6809187 L99.3356857,20.471732 C99.3356857,23.0516364 97.2561828,25.1630239 94.7152389,25.1630239 L4.62029601,25.1630239 C2.07935186,25.1630239 -0.000150797872,23.0516364 -0.000150797872,20.471732 L-0.000150797872,4.7695311 C-0.000150797872,2.18886125 2.07935186,0.0782392344 4.62029601,0.0782392344" id="Fill-24" fill="#F6CFE2" mask="url(#mask-4)"></path>
                                            </g>
                                        </g>
                                        <path d="M80.15625,90.1052632 C80.15625,96.6158905 74.8676804,101.894737 68.3433718,101.894737 C61.8198196,101.894737 56.53125,96.6158905 56.53125,90.1052632 C56.53125,83.5946358 61.8198196,78.3157895 68.3433718,78.3157895 C74.8676804,78.3157895 80.15625,83.5946358 80.15625,90.1052632" id="Fill-27" fill="#FEFEFE"></path>
                                        <path d="M64.96875,86.3157895 C64.96875,87.0131242 64.4024647,87.5789474 63.703125,87.5789474 C63.004428,87.5789474 62.4375,87.0131242 62.4375,86.3157895 C62.4375,85.6184547 63.004428,85.0526316 63.703125,85.0526316 C64.4024647,85.0526316 64.96875,85.6184547 64.96875,86.3157895" id="Fill-29" fill="#020302"></path>
                                        <path d="M72.5625,86.3157895 C72.5625,87.0131242 71.9962147,87.5789474 71.296875,87.5789474 C70.598178,87.5789474 70.03125,87.0131242 70.03125,86.3157895 C70.03125,85.6184547 70.598178,85.0526316 71.296875,85.0526316 C71.9962147,85.0526316 72.5625,85.6184547 72.5625,86.3157895" id="Fill-31" fill="#020302"></path>
                                        <path d="M62.4375,92.6315789 C62.4375,92.6315789 67.3687225,100.210526 73.40625,92.6315789" id="Stroke-33" stroke="#020302" stroke-width="0.75"></path>
                                    </g>
                                </g>
                            </g>
                        </g>
                    </g>
                </g>
            </g>
        </g>
    </g>
</svg>