<?xml version="1.0" encoding="UTF-8"?>
<svg width="240px" height="150px" viewBox="0 0 240 150" version="1.1" xmlns="http://www.w3.org/2000/svg" xmlns:xlink="http://www.w3.org/1999/xlink">
    <!-- Generator: Sketch 41 (35326) - http://www.bohemiancoding.com/sketch -->
    <title>Artboard</title>
    <desc>Created with Sketch.</desc>
    <defs></defs>
    <g id="Page-1" stroke="none" stroke-width="1" fill="none" fill-rule="evenodd">
        <g id="Artboard">
            <g id="4" transform="translate(26.000000, 26.000000)">
                <g id="Page-1">
                    <g id="Landing-Page">
                        <g id="Client-Landing-Page">
                            <g id="Why-Use-Zehitomo">
                                <g id="Features">
                                    <g id="Page-1">
                                        <path d="M36.7100592,41.7613636 C36.7100592,51.9099032 28.4925395,60.1363636 18.3550296,60.1363636 C8.21751972,60.1363636 0,51.9099032 0,41.7613636 C0,31.6128241 8.21751972,23.3863636 18.3550296,23.3863636 C28.4925395,23.3863636 36.7100592,31.6128241 36.7100592,41.7613636" id="Fill-1" fill="#EFD8BC"></path>
                                        <path d="M24.4733728,38.4204545 C24.4733728,41.8028134 21.7344827,44.5454545 18.3545334,44.5454545 C14.9755765,44.5454545 12.2366864,41.8028134 12.2366864,38.4204545 C12.2366864,35.0380957 14.9755765,32.2954545 18.3545334,32.2954545 C21.7344827,32.2954545 24.4733728,35.0380957 24.4733728,38.4204545" id="Fill-3" fill="#F3F4F4"></path>
                                        <path d="M30.035503,55.4792547 C27.4180754,51.5787526 22.9185162,49 17.7988166,49 C12.6791169,49 8.17955777,51.5787526 5.56213018,55.4792547 C8.7968667,58.3632399 13.0812172,60.1363636 17.7988166,60.1363636 C22.5164159,60.1363636 26.8007664,58.3632399 30.035503,55.4792547" id="Fill-5" fill="#F3F4F4"></path>
                                        <path d="M146.840237,41.7613636 C146.840237,51.9099032 138.622717,60.1363636 128.485207,60.1363636 C118.347698,60.1363636 110.130178,51.9099032 110.130178,41.7613636 C110.130178,31.6128241 118.347698,23.3863636 128.485207,23.3863636 C138.622717,23.3863636 146.840237,31.6128241 146.840237,41.7613636" id="Fill-7" fill="#EFD8BC"></path>
                                        <path d="M134.60355,38.4204545 C134.60355,41.8028134 131.864661,44.5454545 128.484711,44.5454545 C125.105754,44.5454545 122.366864,41.8028134 122.366864,38.4204545 C122.366864,35.0380957 125.105754,32.2954545 128.484711,32.2954545 C131.864661,32.2954545 134.60355,35.0380957 134.60355,38.4204545" id="Fill-9" fill="#F3F4F4"></path>
                                        <path d="M140.16568,55.4792547 C137.548253,51.5787526 133.048694,49 127.928994,49 C122.809295,49 118.309735,51.5787526 115.692308,55.4792547 C118.927045,58.3632399 123.211394,60.1363636 127.928994,60.1363636 C132.646594,60.1363636 136.930944,58.3632399 140.16568,55.4792547" id="Fill-11" fill="#F3F4F4"></path>
                                        <path d="M188,41.7613636 C188,51.9099032 179.78248,60.1363636 169.64497,60.1363636 C159.507461,60.1363636 151.289941,51.9099032 151.289941,41.7613636 C151.289941,31.6128241 159.507461,23.3863636 169.64497,23.3863636 C179.78248,23.3863636 188,31.6128241 188,41.7613636" id="Fill-13" fill="#EFD8BC"></path>
                                        <path d="M175.763314,38.4204545 C175.763314,41.8028134 173.024424,44.5454545 169.644474,44.5454545 C166.265517,44.5454545 163.526627,41.8028134 163.526627,38.4204545 C163.526627,35.0380957 166.265517,32.2954545 169.644474,32.2954545 C173.024424,32.2954545 175.763314,35.0380957 175.763314,38.4204545" id="Fill-15" fill="#F3F4F4"></path>
                                        <path d="M181.325444,55.4792547 C178.708017,51.5787526 174.208457,49 169.088757,49 C163.969058,49 159.469498,51.5787526 156.852071,55.4792547 C160.086808,58.3632399 164.371158,60.1363636 169.088757,60.1363636 C173.806357,60.1363636 178.090707,58.3632399 181.325444,55.4792547" id="Fill-17" fill="#F3F4F4"></path>
                                        <path d="M115.692308,42.3177081 C115.692308,65.6893239 96.7668066,84.6363636 73.4205916,84.6363636 C50.0734301,84.6363636 31.147929,65.6893239 31.147929,42.3177081 C31.147929,18.9460922 50.0734301,0 73.4205916,0 C96.7668066,0 115.692308,18.9460922 115.692308,42.3177081" id="Fill-19" fill="#3BBCDA"></path>
                                        <path d="M86.7692308,33.4090909 C86.7692308,40.78975 80.7925467,46.7727273 73.4196508,46.7727273 C66.04769,46.7727273 60.0710059,40.78975 60.0710059,33.4090909 C60.0710059,26.0284318 66.04769,20.0454545 73.4196508,20.0454545 C80.7925467,20.0454545 86.7692308,26.0284318 86.7692308,33.4090909" id="Fill-21" fill="#F3F4F4"></path>
                                        <path d="M101.230769,73.4589289 C95.2822642,64.0985343 85.0558389,57.9090909 73.4201183,57.9090909 C61.7853243,57.9090909 51.5588991,64.0985343 45.6094675,73.4589289 C52.960782,80.3809415 62.6989109,84.6363636 73.4201183,84.6363636 C84.1422524,84.6363636 93.8794547,80.3809415 101.230769,73.4589289" id="Fill-23" fill="#F3F4F4"></path>
                                        <polygon id="Fill-25" fill="#444444" points="129.04142 77.227535 95.6686391 50.1136364 101.917543 92.362336 111.255491 87.1516254 117.551285 98 125.999266 93.2866201 119.703472 82.4382456"></polygon>
                                    </g>
                                </g>
                            </g>
                        </g>
                    </g>
                </g>
            </g>
        </g>
    </g>
</svg>