<?xml version="1.0" encoding="UTF-8"?>
<svg width="240px" height="150px" viewBox="0 0 240 150" version="1.1" xmlns="http://www.w3.org/2000/svg" xmlns:xlink="http://www.w3.org/1999/xlink">
    <!-- Generator: Sketch 42 (36781) - http://www.bohemiancoding.com/sketch -->
    <title>Artboard Copy 2</title>
    <desc>Created with Sketch.</desc>
    <defs>
        <polygon id="path-1" points="99.3729924 0.338683021 0.000416382989 0.338683021 0.000416382989 6.59555002 99.3729924 6.59555002"></polygon>
        <polygon id="path-3" points="153.766597 94.8602941 203.240544 94.8602941 203.240544 0.363744869 0 0.363744869 0 94.8602941 153.766597 94.8602941 203.240613 94.8602941 203.240613 0.511836119 104.292649 0.511836119 104.292649 94.8602941"></polygon>
        <polygon id="path-5" points="99.3126839 0.338683021 0.633017007 0.338683021 0.633017007 6.59504168 99.3126839 6.59504168"></polygon>
    </defs>
    <g id="Page-1" stroke="none" stroke-width="1" fill="none" fill-rule="evenodd">
        <g id="Artboard-Copy-2">
            <g id="1" transform="translate(18.000000, 27.000000)">
                <g id="Artboard-Copy">
                    <g id="Page-1">
                        <g id="Artboard-Copy">
                            <g id="1">
                                <path d="M97.5591003,95.8588235 L1.37349771,95.8588235 C0.617659434,95.8588235 0,95.244719 0,94.4947566 L0,2.36259643 C0,1.61263403 0.617659434,0.998529412 1.37349771,0.998529412 L97.5591003,0.998529412 C98.3142477,0.998529412 98.932598,1.61263403 98.932598,2.36259643 L98.932598,94.4947566 C98.932598,95.244719 98.3142477,95.8588235 97.5591003,95.8588235 L97.5591003,95.8588235 Z" id="Fill-1" fill="#F3F4F4" fill-rule="nonzero"></path>
                                <path d="M201.488295,95.8588235 L105.302691,95.8588235 C104.546853,95.8588235 103.929194,95.244719 103.929194,94.4947566 L103.929194,2.36259643 C103.929194,1.61263403 104.546853,0.998529412 105.302691,0.998529412 L201.488295,0.998529412 C202.243441,0.998529412 202.861792,1.61263403 202.861792,2.36259643 L202.861792,94.4947566 C202.861792,95.244719 202.243441,95.8588235 201.488295,95.8588235 L201.488295,95.8588235 Z" id="Fill-1" fill="#F3F4F4" fill-rule="nonzero"></path>
                                <g id="Group-5">
                                    <g id="Fill-3-Clipped">
                                        <g>
                                            <mask id="mask-2" fill="white">
                                                <use xlink:href="#path-1"></use>
                                            </mask>
                                            <g id="path-1"></g>
                                            <path d="M99.3729924,6.59555002 L0.000416382989,6.59555002 L0.000416382989,1.60172288 C0.000416382989,0.907200281 0.620827036,0.338492393 1.38003202,0.338492393 L97.9933768,0.338492393 C98.7518879,0.338492393 99.3729924,0.907200281 99.3729924,1.60172288 L99.3729924,6.59555002 Z" id="Fill-3" fill="#D1D1D1" fill-rule="nonzero" mask="url(#mask-2)"></path>
                                        </g>
                                    </g>
                                </g>
                                <path d="M2.99795752,4.49338235 C2.99795752,4.76930449 2.7744383,4.99264706 2.49829793,4.99264706 C2.22215756,4.99264706 1.99863834,4.76930449 1.99863834,4.49338235 C1.99863834,4.21746022 2.22215756,3.99411765 2.49829793,3.99411765 C2.7744383,3.99411765 2.99795752,4.21746022 2.99795752,4.49338235" id="Fill-6" fill="#9F9F9F" fill-rule="nonzero"></path>
                                <path d="M5.99591503,4.49338235 C5.99591503,4.76930449 5.77239581,4.99264706 5.49625545,4.99264706 C5.22011508,4.99264706 4.99659586,4.76930449 4.99659586,4.49338235 C4.99659586,4.21746022 5.22011508,3.99411765 5.49625545,3.99411765 C5.77239581,3.99411765 5.99591503,4.21746022 5.99591503,4.49338235" id="Fill-8" fill="#9F9F9F" fill-rule="nonzero"></path>
                                <path d="M7.99455338,4.49338235 C7.99455338,4.76930449 7.77103416,4.99264706 7.49489379,4.99264706 C7.21875342,4.99264706 6.9952342,4.76930449 6.9952342,4.49338235 C6.9952342,4.21746022 7.21875342,3.99411765 7.49489379,3.99411765 C7.77103416,3.99411765 7.99455338,4.21746022 7.99455338,4.49338235" id="Fill-10" fill="#9F9F9F" fill-rule="nonzero"></path>
                                <path d="M11.6816177,27.1019529 C9.62912629,25.0503315 9.62912629,21.7124643 11.6816177,19.6601503 C12.7089032,18.6350323 14.0578219,18.1217807 15.4067407,18.1217807 C16.7542731,18.1217807 18.1031917,18.6350323 19.1304773,19.6601503 C21.0450269,21.5760127 21.1725711,24.6098079 19.5124168,26.6738968 L18.7000155,27.4856795 C16.6343538,29.1452624 13.5989401,29.0171226 11.6816177,27.1019529 L11.6816177,27.1019529 Z M27.9809368,33.7222757 L22.3606732,28.1069841 C24.5878447,24.8363035 24.256507,20.3347888 21.3562625,17.4353672 C18.0747716,14.1584529 12.7352439,14.1591455 9.45583251,17.4353672 C6.17434163,20.7150521 6.17572798,26.0491289 9.45583251,29.3267359 C11.0951916,30.9662322 13.2509661,31.7856339 15.4067407,31.7856339 C17.0606564,31.7856339 18.7131859,31.2980101 20.134888,30.3310746 L25.7544584,35.9470588 L27.9809368,33.7222757 Z" id="Fill-12" fill="#9F9F9F" fill-rule="nonzero"></path>
                                <g id="Group-16">
                                    <g id="Fill-14-Clipped">
                                        <g>
                                            <mask id="mask-4" fill="white">
                                                <use xlink:href="#path-3"></use>
                                            </mask>
                                            <g id="path-3"></g>
                                            <path d="M201.866797,94.8602941 L105.666466,94.8602941 C104.911143,94.8602941 104.292649,94.2495031 104.292649,93.5035872 L104.292649,1.86854306 C104.292649,1.12262723 104.911143,0.511836119 105.666466,0.511836119 L201.866797,0.511836119 C202.622119,0.511836119 203.240613,1.12262723 203.240613,1.86854306 L203.240613,93.5035872 C203.240613,94.2495031 202.622119,94.8602941 201.866797,94.8602941" id="Fill-14" fill="#F3F4F4" fill-rule="nonzero" mask="url(#mask-4)"></path>
                                        </g>
                                    </g>
                                </g>
                                <g id="Group-19" transform="translate(103.929194, 0.000000)">
                                    <g id="Fill-17-Clipped">
                                        <g>
                                            <mask id="mask-6" fill="white">
                                                <use xlink:href="#path-5"></use>
                                            </mask>
                                            <g id="path-5"></g>
                                            <path d="M99.3126839,6.59504168 L0.633017007,6.59504168 L0.633017007,1.60184996 C0.633017007,0.907327366 1.24983816,0.338619479 2.00311805,0.338619479 L97.9425828,0.338619479 C98.6958627,0.338619479 99.3126839,0.907327366 99.3126839,1.60184996 L99.3126839,6.59504168 Z" id="Fill-17" fill="#D1D1D1" fill-rule="nonzero" mask="url(#mask-6)"></path>
                                        </g>
                                    </g>
                                </g>
                                <path d="M108.92579,4.49338235 C108.92579,4.76930449 108.702271,4.99264706 108.42613,4.99264706 C108.150473,4.99264706 107.926471,4.76930449 107.926471,4.49338235 C107.926471,4.21746022 108.150473,3.99411765 108.42613,3.99411765 C108.702271,3.99411765 108.92579,4.21746022 108.92579,4.49338235" id="Fill-20" fill="#9F9F9F" fill-rule="nonzero"></path>
                                <path d="M110.924428,4.49338235 C110.924428,4.76930449 110.700909,4.99264706 110.424769,4.99264706 C110.149111,4.99264706 109.925109,4.76930449 109.925109,4.49338235 C109.925109,4.21746022 110.149111,3.99411765 110.424769,3.99411765 C110.700909,3.99411765 110.924428,4.21746022 110.924428,4.49338235" id="Fill-22" fill="#9F9F9F" fill-rule="nonzero"></path>
                                <path d="M113.922386,4.49338235 C113.922386,4.76930449 113.698867,4.99264706 113.422726,4.99264706 C113.147069,4.99264706 112.923066,4.76930449 112.923066,4.49338235 C112.923066,4.21746022 113.147069,3.99411765 113.422726,3.99411765 C113.698867,3.99411765 113.922386,4.21746022 113.922386,4.49338235" id="Fill-24" fill="#9F9F9F" fill-rule="nonzero"></path>
                                <path d="M197.29691,81.8794118 L111.492714,81.8794118 C110.630531,81.8794118 109.925109,81.2031602 109.925109,80.3766305 L109.925109,65.4093285 C109.925109,64.5821339 110.630531,63.9058824 111.492714,63.9058824 L197.29691,63.9058824 C198.159093,63.9058824 198.864515,64.5821339 198.864515,65.4093285 L198.864515,80.3766305 C198.864515,81.2031602 198.159093,81.8794118 197.29691,81.8794118" id="Fill-26" fill="#32BEDF" fill-rule="nonzero"></path>
                                <path d="M154.395159,52.9213664 C144.19956,52.9213664 135.907407,44.6346932 135.907407,34.4482262 C135.907407,24.2610668 144.200253,15.9764706 154.395159,15.9764706 C164.590064,15.9764706 172.882217,24.2624515 172.882217,34.4482262 C172.882217,44.6340009 164.590064,52.9220588 154.395851,52.9220588 L154.395159,52.9213664 Z" id="Fill-28" fill="#32BEDF" fill-rule="nonzero"></path>
                                <path d="M145.102111,28.5876138 C145.930997,28.5876138 146.651405,29.0494206 147.026211,29.7305684 L157.125133,27.0031746 L157.125133,26.965333 C157.125133,25.8595191 158.013126,24.9632353 159.110427,24.9632353 C160.207032,24.9632353 161.097112,25.8595191 161.097112,26.9660338 C161.097112,28.0718476 160.207728,28.9674307 159.110427,28.9674307 C158.816284,28.9674307 158.536743,28.9029599 158.284322,28.7873329 L147.721586,39.430616 C147.791123,39.5805806 147.838409,39.7445606 147.85788,39.9162491 L159.942095,42.8237407 C160.296041,42.1587107 160.990719,41.7067145 161.791791,41.7067145 C162.950284,41.7067145 163.888344,42.6534538 163.888344,43.8195337 C163.888344,44.9870153 162.950284,45.9323529 161.791791,45.9323529 C160.649985,45.9323529 159.71888,45.0108414 159.695932,43.8636822 L147.611716,40.9568914 C147.332871,41.3815575 146.85515,41.6632668 146.310672,41.6632668 C145.451188,41.6632668 144.755119,40.9617968 144.755119,40.0956461 C144.755119,39.2280938 145.451884,38.5266238 146.311366,38.5266238 C146.546403,38.5266238 146.769618,38.5798822 146.968496,38.6737852 L157.467952,28.0907684 L157.429707,28.0305022 L147.300884,30.7656045 L147.300884,30.8041469 C147.300884,31.2750637 147.154856,31.7116429 146.907302,32.0711376 C146.508853,32.6443668 145.848942,33.0213806 145.101416,33.0213806 C143.886596,33.0213806 142.902642,32.0283907 142.902642,30.8041469 C142.902642,29.579903 143.887987,28.586913 145.102111,28.586913" id="Fill-30" fill="#FEFEFE" fill-rule="nonzero"></path>
                                <polyline id="Stroke-32" stroke="#FEFEFE" stroke-width="3" points="149.897876 72.6520766 153.060401 75.8882353 159.891068 68.8985294"></polyline>
                            </g>
                            <rect id="Rectangle" fill="#E4E4E4" fill-rule="nonzero" x="31" y="27" width="48" height="7"></rect>
                            <rect id="Rectangle" fill="#E4E4E4" fill-rule="nonzero" x="31" y="39" width="52" height="7"></rect>
                            <rect id="Rectangle" fill="#E4E4E4" fill-rule="nonzero" x="31" y="15" width="57" height="7"></rect>
                            <g id="Group" transform="translate(59.500000, 66.500000) scale(-1, 1) rotate(-180.000000) translate(-59.500000, -66.500000) translate(31.000000, 51.000000)" fill-rule="nonzero" fill="#E4E4E4">
                                <rect id="Rectangle" x="0" y="12" width="53" height="7"></rect>
                                <rect id="Rectangle" x="0" y="0" width="57" height="7"></rect>
                                <rect id="Rectangle" x="0" y="24" width="50" height="7"></rect>
                            </g>
                        </g>
                    </g>
                </g>
            </g>
        </g>
    </g>
</svg>